<mxfile>
    <diagram id="Uug-CgO5hbXQp728jUom" name="第 1 页">
        <mxGraphModel dx="3087" dy="2497" grid="1" gridSize="10" guides="1" tooltips="1" connect="1" arrows="1" fold="1" page="1" pageScale="1" pageWidth="1169" pageHeight="827" math="0" shadow="0">
            <root>
                <mxCell id="0"/>
                <mxCell id="1" parent="0"/>
                <mxCell id="2" value="" style="shape=image;imageAspect=0;aspect=fixed;verticalLabelPosition=bottom;verticalAlign=top;image=https://cdn.jsdelivr.net/npm/js-spider/docs/assets/dependencies.svg;" parent="1" vertex="1">
                    <mxGeometry x="80" y="-350" width="2770.29" height="1010" as="geometry"/>
                </mxCell>
            </root>
        </mxGraphModel>
    </diagram>
</mxfile>
